<?xml version="1.0" encoding="UTF-8"?>
<svg width="315px" height="90px" viewBox="0 0 315 90" version="1.1" xmlns="http://www.w3.org/2000/svg" xmlns:xlink="http://www.w3.org/1999/xlink">
    <title>D1ABBD45-75F4-4A66-9D89-C72AEB2A8894</title>
    <defs>
        <polygon id="path-1" points="0.780780822 1.18109589 40.7391994 1.18109589 40.7391994 54.7833699 0.780780822 54.7833699"></polygon>
        <polygon id="path-3" points="0.225986301 0.352755037 43.8242055 0.352755037 43.8242055 56.7123288 0.225986301 56.7123288"></polygon>
    </defs>
    <g id="V2" stroke="none" stroke-width="1" fill="none" fill-rule="evenodd">
        <g id="Home" transform="translate(-239.000000, -35.000000)">
            <g id="logo" transform="translate(239.000000, 35.000000)">
                <path d="M11.3369178,15.7031507 C11.3369178,15.7031507 13.1689726,10.739589 12.5414384,7.73013699 C11.9065068,4.72561644 9.7440411,4.39767123 6.92075342,5.90424658 C4.10239726,7.41328767 1.64034247,15.6464384 5.59047945,18.870411 L3.375,23.2631507 C3.375,23.2631507 0.917876712,31.4963014 1.51582192,33.7253425 C2.115,35.9531507 3.13952055,61.3775342 3.13952055,61.3775342 L4.48582192,62.7953425 L8.12527397,62.6843836 L10.0140411,39.9205479 L14.4560959,52.980411 L19.5232192,49.6910959 L12.6856849,30.8539726 L12.4637671,23.5787671 L23.7914384,28.9134247 L25.3695205,23.3506849 C25.3695205,23.3506849 16.2708904,17.4143836 11.3369178,15.7031507" id="Fill-1" fill="#71BE44"></path>
                <path d="M67.8138904,19.9255068 C67.8138904,19.9255068 66.1901918,15.2948219 66.8362192,12.1522192 C67.4859452,9.00838356 68.4069041,8.41906849 70.0688219,8.85673973 C71.7319726,9.29317808 73.6244384,12.3112603 74.798137,17.6730411 C75.338137,20.1363288 73.8993699,23.3566027 72.9525205,23.8176986 C72.0007397,24.2787945 76.7596438,28.2511233 77.0099178,38.7934521 C77.0099178,38.7934521 77.3058082,43.3082466 75.9496438,45.5570137 C74.5897808,47.8033151 70.607589,41.3146849 70.607589,41.3146849 L69.0997808,40.974411 C69.0997808,40.974411 65.0633425,59.7449589 64.6614247,59.7018825 C64.2595068,59.6561918 61.5558082,54.8578356 61.5558082,54.8578356 C61.5558082,54.8578356 63.4544384,46.4804384 64.0289589,43.614 C64.6047123,40.7450959 66.8251233,37.0094795 66.727726,34.674411 C66.6315616,32.3405753 66.7844384,29.953726 66.7844384,29.953726 L56.5429315,32.8904384 L55.2015616,26.4979726 C55.2015616,26.4979726 66.1038904,21.7218082 67.8138904,19.9255068" id="Fill-3" fill="#71BE44"></path>
                <g id="Group-7" transform="translate(19.726027, 0.051534)">
                    <mask id="mask-2" fill="white">
                        <use xlink:href="#path-1"></use>
                    </mask>
                    <g id="Clip-6"></g>
                    <path d="M24.5210548,12.9210411 C30.4881781,17.0326849 36.0237945,23.4584384 37.5463973,25.0993973 C39.069,26.741589 40.8961233,28.5798082 40.7284521,29.662274 C40.5657123,30.742274 37.6536575,33.7085753 37.6536575,33.7085753 L27.0718767,21.9346027 C27.0718767,21.9346027 26.7032466,22.6681644 27.8140685,28.582274 C28.9248904,34.4988493 36.2037945,52.3274795 36.2111918,52.9809041 C36.2148904,53.6343288 28.8681781,54.7833699 28.8681781,54.7833699 C28.8681781,54.7833699 24.029137,31.7335068 22.0947534,34.362 C20.159137,36.9904932 14.299274,48.9481644 14.299274,48.9481644 L10.5599589,48.5573425 C10.5599589,48.5573425 11.2922877,43.9574795 11.0037945,42.581589 C10.7116027,41.2007671 16.688589,28.5637808 16.6824247,27.9091233 C16.6762603,27.2593973 17.0029726,21.9567945 15.7503699,22.2206301 C14.4977671,22.4832329 3.88639726,31.1232329 3.88639726,31.1232329 C2.71023288,30.1430959 0.780780822,25.3854247 0.780780822,25.3854247 C2.11721918,23.6643288 17.2840685,12.0900822 17.2840685,12.0900822 C13.2044795,8.23364384 14.158726,0.317342466 20.8939315,1.2580274 C20.8939315,1.2580274 24.7861233,1.57364384 26.118863,5.39432877 C28.1999589,11.3626849 24.5210548,12.9210411 24.5210548,12.9210411" id="Fill-5" fill="#00A550" mask="url(#mask-2)"></path>
                </g>
                <path d="M7.01457534,36.2347397 C7.01457534,36.2347397 10.107863,34.1437808 7.16252055,25.7355616 C4.21964384,17.3273425 1.56032877,22.7273425 1.56032877,22.7273425 C1.56032877,22.7273425 0.577726027,27.3814521 2.71306849,32.5607671 C2.71306849,32.5607671 1.61457534,33.5729589 1.09306849,34.2066575 C0.575260274,34.8403562 0.529643836,35.242274 0.688684932,35.991863 C0.845260274,36.7463836 1.78471233,43.0870685 1.78471233,43.0870685 L2.87827397,42.072411 C2.87827397,42.072411 3.0940274,43.7281644 3.01265753,45.1841918 C2.92265753,46.6402192 1.44443836,65.1358356 0.000739726027,68.8356986 L3.85841096,73.5206301 C3.85841096,73.5206301 5.84087671,68.002274 5.83224658,59.2402192 C5.83224658,59.2402192 8.45210959,67.9788493 9.7219726,79.6172055 L14.0074521,84.4685753 C14.0074521,84.4685753 9.56416438,58.3291233 7.82087671,51.8898082 C7.82087671,51.8898082 7.94046575,48.7287123 7.96265753,48.1973425 C7.98238356,47.6709041 17.1845753,59.7358356 17.1845753,59.7358356 L19.8771781,55.1137808 C19.8771781,55.1137808 11.1262192,45.8326849 9.14621918,41.4091233 C7.17238356,36.9830959 7.01457534,36.2347397 7.01457534,36.2347397" id="Fill-8" fill="#0089CE"></path>
                <path d="M69.5765342,43.2346438 C69.5765342,43.2346438 65.9826986,40.4545068 69.9476301,32.5579315 C73.9125616,24.6613562 77.2906438,28.923411 77.119274,31.8366986 C76.949137,34.7512192 74.8816027,39.2388904 74.8816027,39.2388904 C74.8816027,39.2388904 77.3769452,39.8923151 77.8824247,40.4397123 C78.389137,40.9883425 77.8479041,42.1472466 77.5347534,43.1298493 C77.2179041,44.1136849 76.8246164,47.8579315 76.2513288,48.2401233 L75.6768082,48.6235479 C75.6768082,48.6235479 75.0295479,51.7661507 75.0209178,53.5969726 C75.0172192,55.4339589 77.0810548,61.5403973 77.6617397,66.7813562 C78.2399589,72.0223151 78.2744795,72.8002603 78.0007808,73.3797123 C77.7320137,73.9603973 73.3713288,77.492589 73.3713288,77.492589 C73.3713288,77.492589 71.3000959,65.763 71.0880411,64.7594384 C70.8796849,63.7571096 66.9332466,81.722589 65.3465342,83.4954658 C63.7548904,85.2708082 59.0243425,89.5303973 59.6235205,88.6205342 C60.2128356,87.7119041 67.2451644,64.5202603 67.6026986,59.9980685 C67.9565342,55.4746438 67.7444795,53.8201233 67.7444795,53.8201233 C67.7444795,53.8201233 59.2351644,64.3710822 55.5821507,63.1788904 L55.4465342,56.9306712 C55.4465342,56.9306712 65.159137,49.0020411 69.5765342,43.2346438" id="Fill-10" fill="#0089CE"></path>
                <g id="Group-14" transform="translate(13.561644, 32.106329)">
                    <mask id="mask-4" fill="white">
                        <use xlink:href="#path-3"></use>
                    </mask>
                    <g id="Clip-13"></g>
                    <path d="M0.225986301,21.4079178 L4.0059863,28.2023014 C4.0059863,28.2023014 10.9335205,25.6995616 15.5777671,22.8898356 C15.5777671,22.8898356 16.1707808,26.9533973 15.7700959,29.3944932 C15.3644795,31.8318904 8.81420548,50.4742192 8.31612329,53.065726 C8.31612329,53.065726 8.87461644,54.3984658 11.5462603,54.7399726 C14.6370822,55.1406575 16.9955753,55.1690137 16.9955753,55.1690137 C16.9955753,55.1690137 22.039274,41.8120274 22.5003699,37.7891507 C22.9700959,33.766274 25.9980411,51.3125753 29.5055753,55.546274 L38.9062603,56.7125753 C38.9062603,56.7125753 29.538863,33.3002466 28.8632466,30.6939452 C28.1839315,28.0938082 27.9299589,25.0054521 28.1013288,24.5813425 C28.2714658,24.1498356 39.3957123,32.2794247 42.8379041,32.4680548 L43.8242055,24.9733973 C43.8242055,24.9733973 37.2961233,22.9083288 26.3124247,13.5729863 L25.6811918,13.0551781 C25.6811918,13.0551781 30.7742055,10.5425753 28.4859863,5.26832877 C26.2026986,-0.00961643836 20.2750274,-0.201945205 17.6255753,0.879287671 C14.9736575,1.96175342 11.008726,7.37161644 16.9844795,12.7839452 C16.9844795,12.7839452 9.98543836,18.0520274 0.225986301,21.4079178" id="Fill-12" fill="#0071BB" mask="url(#mask-4)"></path>
                </g>
                <path d="M109.337918,42.021 C109.206,41.2085342 108.942164,40.4330548 108.546411,39.6957945 C108.150658,38.9597671 107.622986,38.3162055 106.963397,37.7663425 C106.303808,37.2177123 105.501205,36.7825068 104.555589,36.4631918 C103.609973,36.1451096 102.522575,35.9848356 101.290932,35.9848356 C99.906411,35.9848356 98.6525753,36.1845616 97.5306575,36.5790822 C96.4099726,36.9748356 95.4532603,37.5752466 94.6617534,38.3766164 C93.8702466,39.1792192 93.2599726,40.1864795 92.8309315,41.3946986 C92.4031233,42.6041507 92.1886027,44.010863 92.1886027,45.6160685 C92.1886027,46.7367534 92.3476438,47.8377123 92.6669589,48.9140137 C92.9838082,49.9915479 93.4954521,50.9531918 94.2006575,51.8001781 C94.9033973,52.6459315 95.8206575,53.3338767 96.9536712,53.8615479 C98.0854521,54.3892192 99.4650411,54.6530548 101.093671,54.6530548 C102.125589,54.6530548 103.088466,54.5273014 103.978603,54.2733288 C104.86874,54.020589 105.665178,53.6297671 106.370384,53.1020959 C107.073123,52.5756575 107.677233,51.8988082 108.182712,51.0752466 C108.689425,50.2504521 109.074082,49.2555205 109.337918,48.0892192 L112.834356,48.0892192 C112.702438,49.3874384 112.327644,50.6190822 111.712438,51.7829178 C111.097233,52.9492192 110.278603,53.971274 109.256548,54.8503151 C108.23326,55.730589 107.02874,56.4234658 105.644219,56.9289452 C104.258466,57.4344247 102.730932,57.6871644 101.059151,57.6871644 C99.5636712,57.6871644 98.0805205,57.4664795 96.6072329,57.0275753 C95.1339452,56.5874384 93.8147671,55.8785342 92.6496986,54.8996301 C91.4846301,53.9219589 90.5328493,52.641 89.7968219,51.0579863 C89.0607945,49.4749726 88.6921644,47.540589 88.6921644,45.2536027 C88.6921644,43.5374384 88.956,41.9334658 89.4836712,40.4379863 C90.0113425,38.9437397 90.7966849,37.640589 91.8421644,36.5297671 C92.8851781,35.4201781 94.1710685,34.5460685 95.6998356,33.9074384 C97.2286027,33.2700411 99.0039452,32.9519589 101.027096,32.9519589 C102.214356,32.9519589 103.466959,33.0949726 104.78737,33.3797671 C106.105315,33.6670274 107.336959,34.1552466 108.481068,34.8481233 C109.622712,35.5397671 110.596685,36.4693562 111.399288,37.6344247 C112.200658,38.800726 112.680247,40.2616849 112.834356,42.021 L109.337918,42.021 Z" id="Fill-15" fill="#0071BB"></path>
                <path d="M137.60137,45.3186986 C137.60137,43.7578767 137.354795,42.3955479 136.859178,41.2304795 C136.364795,40.0641781 135.683014,39.0914384 134.815068,38.3097945 C133.94589,37.5306164 132.93,36.9474658 131.764932,36.5628082 C130.59863,36.1781507 129.346027,35.9858219 128.004658,35.9858219 C126.663288,35.9858219 125.409452,36.1781507 124.244384,36.5628082 C123.079315,36.9474658 122.062192,37.5306164 121.193014,38.3097945 C120.325068,39.0914384 119.644521,40.0641781 119.148904,41.2304795 C118.654521,42.3955479 118.407945,43.7578767 118.407945,45.3186986 C118.407945,46.8807534 118.654521,48.2430822 119.148904,49.4081507 C119.644521,50.5744521 120.325068,51.5471918 121.193014,52.3276027 C122.062192,53.1080137 123.079315,53.6911644 124.244384,54.0758219 C125.409452,54.4604795 126.663288,54.6528082 128.004658,54.6528082 C129.346027,54.6528082 130.59863,54.4604795 131.764932,54.0758219 C132.93,53.6911644 133.94589,53.1080137 134.815068,52.3276027 C135.683014,51.5471918 136.364795,50.5744521 136.859178,49.4081507 C137.354795,48.2430822 137.60137,46.8807534 137.60137,45.3186986 M114.911507,45.3186986 C114.911507,43.8022603 115.146986,42.3080137 115.620411,40.8334932 C116.092603,39.3614384 116.850822,38.0422603 117.896301,36.8759589 C118.939315,35.7108904 120.291781,34.765274 121.952466,34.0403425 C123.611918,33.3141781 125.630137,32.9517123 128.004658,32.9517123 C130.379178,32.9517123 132.396164,33.3141781 134.056849,34.0403425 C135.716301,34.765274 137.067534,35.7108904 138.113014,36.8759589 C139.15726,38.0422603 139.915479,39.3614384 140.388904,40.8334932 C140.862329,42.3080137 141.097808,43.8022603 141.097808,45.3186986 C141.097808,46.8363699 140.862329,48.3318493 140.388904,49.805137 C139.915479,51.2784247 139.15726,52.5963699 138.113014,53.7626712 C137.067534,54.9277397 135.716301,55.8733562 134.056849,56.5982877 C132.396164,57.3244521 130.379178,57.6869178 128.004658,57.6869178 C125.630137,57.6869178 123.611918,57.3244521 121.952466,56.5982877 C120.291781,55.8733562 118.939315,54.9277397 117.896301,53.7626712 C116.850822,52.5963699 116.092603,51.2784247 115.620411,49.805137 C115.146986,48.3318493 114.911507,46.8363699 114.911507,45.3186986" id="Fill-17" fill="#0071BB"></path>
                <polygon id="Fill-19" fill="#0071BB" points="167.910411 33.5449726 172.759315 33.5449726 172.759315 57.0941507 169.26411 57.0941507 169.26411 37.5690822 169.197534 37.5690822 160.02863 57.0941507 156.929178 57.0941507 147.793562 37.9648356 147.726986 37.9648356 147.726986 57.0941507 144.230548 57.0941507 144.230548 33.5449726 149.144795 33.5449726 158.478904 53.0700411"></polygon>
                <polygon id="Fill-21" fill="#0071BB" points="200.858548 33.5449726 205.707452 33.5449726 205.707452 57.0941507 202.212247 57.0941507 202.212247 37.5690822 202.145671 37.5690822 192.976767 57.0941507 189.877315 57.0941507 180.741699 37.9648356 180.675123 37.9648356 180.675123 57.0941507 177.178685 57.0941507 177.178685 33.5449726 182.092932 33.5449726 191.427041 53.0700411"></polygon>
                <path d="M210.059384,33.5449726 L213.555822,33.5449726 L213.555822,48.6181233 C213.555822,49.6722329 213.725959,50.5845616 214.067466,51.3538767 C214.40774,52.1244247 214.89226,52.750726 215.518562,53.2352466 C216.144863,53.7185342 216.898151,54.0748356 217.777192,54.3066164 C218.657466,54.5371644 219.635137,54.6530548 220.712671,54.6530548 C221.790205,54.6530548 222.76911,54.5371644 223.646918,54.3066164 C224.527192,54.0748356 225.280479,53.7185342 225.906781,53.2352466 C226.533082,52.750726 227.017603,52.1244247 227.357877,51.3538767 C227.699384,50.5845616 227.869521,49.6722329 227.869521,48.6181233 L227.869521,33.5449726 L231.364726,33.5449726 L231.364726,48.1890822 C231.364726,54.521137 227.814041,57.6871644 220.712671,57.6871644 C213.611301,57.6871644 210.059384,54.521137 210.059384,48.1890822 L210.059384,33.5449726 Z" id="Fill-23" fill="#0071BB"></path>
                <polygon id="Fill-25" fill="#0071BB" points="239.412452 38.359726 239.34711 38.359726 239.34711 57.0932877 235.850671 57.0932877 235.850671 33.5453425 239.906836 33.5453425 255.046562 52.2776712 255.110671 52.2776712 255.110671 33.5453425 258.60711 33.5453425 258.60711 57.0932877 254.550945 57.0932877"></polygon>
                <polygon id="Fill-27" fill="#0071BB" points="263.45589 57.094274 266.951096 57.094274 266.951096 33.5450959 263.45589 33.5450959"></polygon>
                <polygon id="Fill-29" fill="#0071BB" points="278.066342 36.5790822 269.160041 36.5790822 269.160041 33.5449726 290.466616 33.5449726 290.466616 36.5790822 281.561548 36.5790822 281.561548 57.0941507 278.066342 57.0941507"></polygon>
                <polygon id="Fill-30" fill="#0071BB" points="309.594945 33.5449726 313.849603 33.5449726 303.460151 47.2323699 303.460151 57.0941507 299.964945 57.0941507 299.964945 47.3963425 289.642068 33.5449726 294.095219 33.5449726 301.778507 44.2636027"></polygon>
                <path d="M106.732603,76.8883562 C106.621644,77.460411 106.402192,78.1249315 106.073014,78.8831507 C105.742603,79.6413699 105.243288,80.3675342 104.572603,81.060411 C103.900685,81.7532877 103.03274,82.3413699 101.967534,82.8246575 C100.901096,83.3079452 99.5979452,83.5508219 98.0593151,83.5508219 C96.4972603,83.5508219 95.1176712,83.3313699 93.9193151,82.8912329 C92.7209589,82.4523288 91.7149315,81.8309589 90.9012329,81.0271233 C90.0875342,80.2257534 89.4673973,79.2690411 89.0383562,78.1582192 C88.6093151,77.0486301 88.3947945,75.8120548 88.3947945,74.4484932 C88.3947945,73.1724658 88.5932877,71.980274 88.9878082,70.8694521 C89.3847945,69.759863 89.9839726,68.7920548 90.7853425,67.9672603 C91.5891781,67.1424658 92.5939726,66.4989041 93.8046575,66.0378082 C95.0128767,65.5754795 96.4319178,65.3461644 98.0593151,65.3461644 C99.5313699,65.3461644 100.785205,65.549589 101.818356,65.9552055 C102.85274,66.3620548 103.703425,66.8736986 104.37411,67.4889041 C105.044795,68.1053425 105.556438,68.769863 105.907808,69.4836986 C106.259178,70.1987671 106.490959,70.8645205 106.600685,71.479726 L104.159589,71.479726 C103.786027,70.0064384 103.056164,68.9560274 101.967534,68.3309589 C100.878904,67.7034247 99.5757534,67.390274 98.0593151,67.390274 C96.8276712,67.390274 95.7612329,67.5715068 94.8587671,67.9339726 C93.9575342,68.2964384 93.210411,68.7982192 92.6173973,69.4343836 C92.0231507,70.0730137 91.5780822,70.820137 91.2809589,71.6769863 C90.9850685,72.5350685 90.8346575,73.4584932 90.8346575,74.4484932 C90.8346575,76.5813699 91.4560274,78.290137 92.6987671,79.5772603 C93.9415068,80.8631507 95.7279452,81.5054795 98.0593151,81.5054795 C99.8617808,81.5054795 101.273425,81.0727397 102.296712,80.2023288 C103.318767,79.3343836 103.984521,78.229726 104.29274,76.8883562 L106.732603,76.8883562 Z" id="Fill-31" fill="#0071BB"></path>
                <path d="M122.431315,73.7880411 C122.167479,73.9655753 121.848164,74.1073562 121.474603,74.2170822 C121.101041,74.3268082 120.621452,74.4303699 120.040767,74.5314658 C119.457616,74.6300959 118.742548,74.7176301 117.895562,74.7940685 C117.049808,74.8717397 116.021589,74.9642055 114.812137,75.0751644 C113.362274,75.2058493 112.250219,75.5042055 111.480904,75.9653014 C110.711589,76.4276301 110.326932,77.1858493 110.326932,78.2399589 C110.326932,78.8995479 110.458849,79.4568082 110.722685,79.9068082 C110.986521,80.3568082 111.350219,80.7143425 111.811315,80.9781781 C112.273644,81.2420137 112.800082,81.4281781 113.394329,81.539137 C113.987342,81.648863 114.614877,81.7043425 115.273233,81.7043425 C116.086932,81.7043425 116.922822,81.5933836 117.780904,81.3739315 C118.638986,81.1544795 119.408301,80.819137 120.090082,80.3679041 C120.77063,79.9179041 121.330356,79.3618767 121.771726,78.7022877 C122.21063,78.0426986 122.431315,77.2733836 122.431315,76.3931096 L122.431315,73.7880411 Z M108.644055,71.1496849 C108.732822,70.2484521 108.936247,69.4409178 109.254329,68.7258493 C109.573644,68.0107808 110.047068,67.4005068 110.67337,66.8950274 C111.300904,66.3895479 112.11337,66.0048904 113.113233,65.7410548 C114.114329,65.4772192 115.350904,65.3453014 116.824192,65.3453014 C118.253096,65.3453014 119.468712,65.4550274 120.468575,65.6744795 C121.469671,65.8951644 122.282137,66.2181781 122.909671,66.6484521 C123.535973,67.0774932 123.985973,67.6100959 124.260904,68.2474932 C124.535836,68.8848904 124.672685,69.6110548 124.672685,70.4235205 L124.672685,79.3951644 C124.672685,80.099137 124.777479,80.5947534 124.987068,80.8795479 C125.195425,81.1643425 125.541863,81.308589 126.026384,81.308589 C126.245836,81.308589 126.460356,81.3036575 126.669945,81.2913288 C126.877068,81.2802329 127.091589,81.2629726 127.312274,81.2420137 L127.312274,82.8916027 C127.07063,82.9347534 126.768575,82.9902329 126.40611,83.0568082 C126.042411,83.1209178 125.662685,83.1554384 125.268164,83.1554384 C124.651726,83.1554384 124.167205,83.0605068 123.815836,82.8743425 C123.464466,82.6881781 123.20063,82.4453014 123.024329,82.1481781 C122.848027,81.8522877 122.738301,81.5218767 122.695151,81.159411 C122.650767,80.7969452 122.628575,80.4505068 122.628575,80.1213288 L122.562,80.1213288 C122.36474,80.4061233 122.100904,80.7426986 121.771726,81.1261233 C121.441315,81.5120137 120.974055,81.8843425 120.369945,82.2480411 C119.764603,82.6105068 118.995288,82.918726 118.060767,83.1714658 C117.126247,83.4229726 115.955014,83.5511918 114.548301,83.5511918 C113.82337,83.5511918 113.063918,83.4624247 112.273644,83.2861233 C111.480904,83.1110548 110.760904,82.8250274 110.112411,82.429274 C109.463918,82.0322877 108.931315,81.5058493 108.51337,80.8462603 C108.095425,80.1854384 107.885836,79.3729726 107.885836,78.4051644 C107.885836,77.2622877 108.155836,76.3437945 108.694603,75.6521507 C109.23337,74.959274 109.920082,74.4266712 110.755973,74.0518767 C111.59063,73.6783151 112.509123,73.4255753 113.510219,73.2936575 C114.510082,73.1617397 115.482822,73.0742055 116.428438,73.0298219 C117.769808,72.9632466 118.836247,72.8880411 119.627753,72.7980411 C120.41926,72.7117397 121.02337,72.5835205 121.441315,72.4195479 C121.85926,72.2543425 122.128027,72.0398219 122.250082,71.7759863 C122.369671,71.5121507 122.431315,71.1718767 122.431315,70.7539315 C122.431315,69.5000959 121.991178,68.6259863 121.112137,68.1316027 C120.231863,67.6372192 118.780767,67.3906438 116.757616,67.3906438 C114.823233,67.3906438 113.383233,67.6705068 112.438849,68.2302329 C111.492,68.7911918 110.975425,69.7639315 110.88789,71.1496849 L108.644055,71.1496849 Z" id="Fill-32" fill="#0071BB"></path>
                <path d="M128.268123,65.8730959 L130.707986,65.8730959 L130.707986,69.7985753 L130.774562,69.7985753 C130.994014,69.291863 131.270178,68.7752877 131.599356,68.2476164 C131.929767,67.7199452 132.352644,67.241589 132.867986,66.8137808 C133.384562,66.3835068 134.005932,66.0333699 134.732096,65.7572055 C135.45826,65.4835068 136.326205,65.3454247 137.337164,65.3454247 C137.975795,65.3454247 138.459082,65.3885753 138.78826,65.4773425 L138.78826,67.9837808 C138.018945,67.8506301 137.271822,67.7865205 136.54689,67.7865205 C135.887301,67.7865205 135.210452,67.8962466 134.517575,68.1156986 C133.825932,68.3351507 133.198397,68.6988493 132.638671,69.2043288 C132.077712,69.7098082 131.615384,70.3804932 131.252918,71.2163836 C130.890452,72.052274 130.707986,73.0743288 130.707986,74.2825479 L130.741274,83.022411 L128.300178,83.022411 L128.268123,65.8730959 Z" id="Fill-33" fill="#0071BB"></path>
                <path d="M155.774342,73.1945342 C155.598041,72.1404247 155.286123,71.2441233 154.83489,70.506863 C154.383658,69.7708356 153.839959,69.1704247 153.202562,68.7093288 C152.563932,68.247 151.859959,67.9128904 151.090644,67.7033014 C150.321329,67.4949452 149.531055,67.3901507 148.716123,67.3901507 C147.925849,67.3901507 147.139274,67.4949452 146.358863,67.7033014 C145.577219,67.9128904 144.862151,68.247 144.21489,68.7093288 C143.566397,69.1704247 143.01037,69.7708356 142.549274,70.506863 C142.086945,71.2441233 141.791055,72.1404247 141.659137,73.1945342 L155.774342,73.1945342 Z M157.786397,77.5478219 C157.544753,78.317137 157.192151,79.0605616 156.731055,79.7743973 C156.268726,80.4894658 155.669548,81.126863 154.933521,81.6878219 C154.197493,82.2487808 153.301192,82.6987808 152.245849,83.0390548 C151.190507,83.3805616 149.958863,83.5506986 148.552151,83.5506986 C146.792836,83.5506986 145.320781,83.2708356 144.133521,82.7098767 C142.945027,82.1489178 141.988315,81.4350822 141.262151,80.5659041 C140.538452,79.696726 140.015712,78.7239863 139.696397,77.6464521 C139.377082,76.5701507 139.218041,75.5037123 139.218041,74.4483699 C139.218041,73.2611096 139.405438,72.1182329 139.779,71.017274 C140.152562,69.9187808 140.724616,68.9460411 141.493932,68.0990548 C142.263247,67.2533014 143.229822,66.5826164 144.396123,66.087 C145.561192,65.5926164 146.946945,65.3460411 148.552151,65.3460411 C149.650644,65.3460411 150.771329,65.4890548 151.915438,65.7738493 C153.059548,66.0598767 154.09763,66.5653562 155.032151,67.2915205 C155.966671,68.0164521 156.731055,69.0064521 157.325301,70.2590548 C157.918315,71.5128904 158.214205,73.107 158.214205,75.0413836 L141.659137,75.0413836 C141.659137,75.9426164 141.813247,76.7846712 142.121466,77.5650822 C142.428452,78.3454932 142.879685,79.0260411 143.472699,79.6091918 C144.066945,80.1923425 144.786945,80.6546712 145.632699,80.9949452 C146.479685,81.3364521 147.452425,81.5053562 148.552151,81.5053562 C150.597493,81.5053562 152.129959,81.1761781 153.153247,80.5153562 C154.175301,79.857 154.906397,78.8682329 155.345301,77.5478219 L157.786397,77.5478219 Z" id="Fill-34" fill="#0071BB"></path>
                <path d="M90.773137,17.3081096 L90.5364247,15.9100274 L89.6894384,14.4170137 L89.6894384,18.3955068 C89.6894384,19.9230411 90.9210822,21.1608493 92.4412192,21.1608493 L97.8276575,21.1608493 L96.8746438,20.3298904 L93.3079315,19.8811233 C92.0343699,19.7245479 91.2071096,18.8800274 90.773137,17.3081096 L90.773137,17.3081096 Z M95.6738219,11.5703014 C97.6501233,11.5703014 99.2516301,13.1792055 99.2516301,15.1653699 L99.2516301,22.1496164 L92.2501233,22.1496164 C90.2738219,22.1496164 88.6723151,20.5394795 88.6723151,18.5545479 L88.6723151,11.5703014 L95.6738219,11.5703014 Z" id="Fill-35" fill="#00ADEE"></path>
                <path d="M106.045644,16.9192603 C106.045644,17.4185753 106.133178,17.8599452 106.311945,18.2409041 C106.488247,18.6230959 106.726192,18.942411 107.022082,19.1988493 C107.317973,19.4552877 107.663178,19.6500822 108.058932,19.7807671 C108.453452,19.9126849 108.867699,19.9780274 109.302904,19.9780274 C109.735644,19.9780274 110.153589,19.9126849 110.555507,19.7807671 C110.956192,19.6500822 111.306329,19.4552877 111.600986,19.1988493 C111.896877,18.942411 112.133589,18.6230959 112.312356,18.2409041 C112.48989,17.8599452 112.578658,17.4185753 112.578658,16.9192603 C112.578658,16.4187123 112.48989,15.9773425 112.312356,15.5963836 C112.133589,15.2141918 111.896877,14.8948767 111.600986,14.6384384 C111.306329,14.382 110.956192,14.1884384 110.555507,14.0577534 C110.153589,13.9246027 109.735644,13.8604932 109.302904,13.8604932 C108.867699,13.8604932 108.453452,13.9246027 108.058932,14.0577534 C107.663178,14.1884384 107.317973,14.382 107.022082,14.6384384 C106.726192,14.8948767 106.488247,15.2141918 106.311945,15.5963836 C106.133178,15.9773425 106.045644,16.4187123 106.045644,16.9192603 L106.045644,16.9192603 Z M102.689753,7.81939726 L106.164,7.81939726 L106.164,12.8729589 L106.203452,12.8729589 C106.544959,12.3983014 107.061534,12.0173425 107.753178,11.7276164 C108.442356,11.4391233 109.281945,11.2936438 110.269479,11.2936438 C111.097973,11.2936438 111.874685,11.4292603 112.597151,11.6980274 C113.320849,11.9680274 113.945918,12.3489863 114.473589,12.842137 C115.000027,13.3365205 115.414274,13.9356986 115.717562,14.6384384 C116.019616,15.3436438 116.17126,16.1228219 116.17126,16.9784384 C116.17126,17.9129589 116.012219,18.7254247 115.696603,19.4146027 C115.380986,20.1062466 114.947014,20.6856986 114.393452,21.1529589 C113.841123,21.6202192 113.190164,21.9691233 112.440575,22.1984384 C111.689753,22.4289863 110.887151,22.5436438 110.031534,22.5436438 C109.664137,22.5436438 109.314,22.5214521 108.986055,22.4746027 C108.656877,22.4289863 108.331397,22.3426849 108.009616,22.2181644 C107.686603,22.0936438 107.367288,21.9198082 107.051671,21.6954247 C106.736055,21.4710411 106.413041,21.1825479 106.083863,20.8274795 L106.045644,20.8274795 L106.045644,22.1491233 L102.689753,22.1491233 L102.689753,7.81939726 Z" id="Fill-36" fill="#00ADEE"></path>
                <path d="M126.040192,16.9974247 C125.711014,17.1552329 125.371973,17.2649589 125.024301,17.324137 C124.675397,17.3820822 124.328959,17.4252329 123.987452,17.4511233 L121.974164,17.6298904 C121.341699,17.6829041 120.878137,17.8061918 120.582247,18.0034521 C120.286356,18.2019452 120.138411,18.5372877 120.138411,19.0107123 C120.138411,19.4853699 120.335671,19.8490685 120.730192,20.1055068 C121.125945,20.3619452 121.657315,20.4913973 122.329233,20.4913973 C122.763205,20.4913973 123.200877,20.4383836 123.642247,20.333589 C124.082384,20.2275616 124.480603,20.0660548 124.835671,19.8490685 C125.191973,19.6333151 125.480466,19.3596164 125.704849,19.0304384 C125.928,18.7024932 126.040192,18.3129041 126.040192,17.8666027 L126.040192,16.9974247 Z M117.098137,14.8066027 C117.204164,13.9916712 117.454438,13.3431781 117.847726,12.8623562 C118.243479,12.3827671 118.729233,12.0178356 119.309918,11.7675616 C119.888137,11.5172877 120.529233,11.3557808 121.234438,11.2830411 C121.937178,11.2115342 122.644849,11.1745479 123.354986,11.1745479 C124.591562,11.1745479 125.604986,11.2694795 126.39526,11.4618082 C127.185534,11.6516712 127.799507,11.9081096 128.240877,12.2311233 C128.682247,12.554137 128.984301,12.9350959 129.148274,13.3752329 C129.312247,13.8166027 129.396082,14.2813973 129.396082,14.7671507 L129.396082,20.0167397 C129.396082,20.4778356 129.431836,20.8822192 129.504575,21.2323562 C129.576082,21.5800274 129.671014,21.8870137 129.790603,22.1496164 L126.316356,22.1496164 C126.170877,21.7809863 126.091973,21.4061918 126.079644,21.0252329 C125.776356,21.3272877 125.424986,21.573863 125.024301,21.763726 C124.622384,21.9548219 124.198274,22.1089315 123.75074,22.2285205 C123.301973,22.3468767 122.851973,22.4282466 122.398274,22.473863 C121.944575,22.5207123 121.520466,22.544137 121.125945,22.544137 C120.426904,22.544137 119.793205,22.4812603 119.221151,22.3567397 C118.647863,22.2309863 118.154712,22.0312603 117.740466,21.753863 C117.326219,21.4789315 117.003205,21.123863 116.772658,20.6886575 C116.543342,20.2546849 116.427452,19.7282466 116.427452,19.1093425 C116.427452,18.4645479 116.556904,17.9393425 116.813342,17.5312603 C117.069781,17.1231781 117.405123,16.8001644 117.81937,16.5634521 C118.233616,16.3267397 118.700877,16.1578356 119.221151,16.0604384 C119.740192,15.9618082 120.269096,15.8927671 120.809096,15.8520822 L124.500329,15.5956438 C125.039096,15.5561918 125.411425,15.4686575 125.614849,15.3293425 C125.819507,15.1912603 125.920603,14.9126301 125.920603,14.4909863 C125.920603,14.0705753 125.720877,13.753726 125.318959,13.5429041 C124.918274,13.3333151 124.211836,13.2272877 123.197178,13.2272877 C122.829781,13.2272877 122.500603,13.2408493 122.210877,13.2679726 C121.921151,13.293863 121.668411,13.3592055 121.450192,13.4652329 C121.234438,13.5700274 121.04211,13.7278356 120.878137,13.9386575 C120.714164,14.1482466 120.572384,14.4392055 120.454027,14.8066027 L117.098137,14.8066027 Z" id="Fill-37" fill="#00ADEE"></path>
                <path d="M142.619055,11.5699315 L136.836863,23.8863699 C136.626041,24.3339041 136.405356,24.6976027 136.174808,24.9823973 C135.945493,25.2634932 135.685356,25.4878767 135.39563,25.6530822 C135.105904,25.8170548 134.777959,25.9280137 134.409329,25.9884247 C134.040699,26.0476027 133.611658,26.0771918 133.125904,26.0771918 C132.717822,26.0771918 132.30974,26.0710274 131.90289,26.0574658 C131.494808,26.0439041 131.086726,26.025411 130.677411,25.9982877 L130.677411,23.5510274 C130.928918,23.5769178 131.177959,23.5966438 131.428233,23.6102055 C131.678507,23.6225342 131.927548,23.6299315 132.177822,23.6299315 C132.599466,23.6299315 132.928644,23.5411644 133.165356,23.3623973 C133.402068,23.1860959 133.619055,22.9123973 133.816315,22.5437671 L134.171384,21.7744521 L129.197959,11.5699315 L132.968096,11.5699315 L135.987411,18.5566438 L138.908096,11.5699315 L142.619055,11.5699315 Z" id="Fill-38" fill="#00ADEE"></path>
                <path d="M145.718014,18.8732466 C145.795685,19.3331096 146.023767,19.699274 146.398562,19.9680411 C146.773356,20.2380411 147.408288,20.3736575 148.303356,20.3736575 C149.092397,20.3736575 149.707603,20.2774932 150.148973,20.0863973 C150.58911,19.8965342 150.809795,19.6105068 150.809795,19.2283151 C150.809795,19.0705068 150.78637,18.938589 150.740753,18.8337945 C150.695137,18.7277671 150.598973,18.6365342 150.454726,18.5563973 C150.310479,18.478726 150.109521,18.4084521 149.853082,18.349274 C149.596644,18.2900959 149.257603,18.2284521 148.835959,18.1618767 L145.678562,17.7279041 C145.126233,17.649 144.631849,17.5442055 144.197877,17.4110548 C143.763904,17.2803699 143.398973,17.1003699 143.103082,16.8698219 C142.807192,16.639274 142.582808,16.3495479 142.431164,16.0006438 C142.279521,15.6529726 142.204315,15.2276301 142.204315,14.7283151 C142.204315,14.0181781 142.368288,13.4325616 142.698699,12.9714658 C143.026644,12.5103699 143.464315,12.1454384 144.010479,11.8754384 C144.556644,11.6054384 145.175548,11.4217397 145.865959,11.3231096 C146.557603,11.2244795 147.264041,11.1751644 147.98774,11.1751644 C149.211986,11.1751644 150.214315,11.2700959 150.997192,11.4611918 C151.780068,11.6522877 152.402671,11.908726 152.862534,12.2305068 C153.32363,12.5535205 153.652808,12.9320137 153.850068,13.3659863 C154.047329,13.7999589 154.178014,14.2610548 154.244589,14.7468082 L150.416507,14.7468082 C150.363493,14.4718767 150.257466,14.2437945 150.099658,14.0674932 C149.941849,13.888726 149.753219,13.7481781 149.537466,13.6421507 C149.320479,13.5373562 149.082534,13.4609178 148.826096,13.4153014 C148.569658,13.3696849 148.315685,13.3462603 148.066644,13.3462603 C147.843493,13.3462603 147.595685,13.3561233 147.326918,13.3758493 C147.056918,13.3955753 146.810342,13.4424247 146.585959,13.5139315 C146.361575,13.5866712 146.174178,13.698863 146.023767,13.849274 C145.872123,14.0009178 145.795685,14.2080411 145.795685,14.4718767 C145.795685,14.589 145.816644,14.7011918 145.856096,14.8059863 C145.895548,14.9120137 145.980616,15.0069452 146.112534,15.0932466 C146.244452,15.1783151 146.420753,15.2510548 146.645137,15.3102329 C146.869521,15.369411 147.171575,15.418726 147.552534,15.4569452 L149.960342,15.7146164 C150.843082,15.8070822 151.582808,15.9414658 152.181986,16.1202329 C152.781164,16.2965342 153.260753,16.5209178 153.623219,16.7909178 C153.984452,17.0596849 154.244589,17.3765342 154.402397,17.7377671 C154.560205,18.1002329 154.63911,18.5107808 154.63911,18.9718767 C154.63911,19.7609178 154.441849,20.3884521 154.047329,20.8557123 C153.652808,21.3229726 153.139932,21.6817397 152.507466,21.9320137 C151.876233,22.1822877 151.17226,22.3462603 150.395548,22.4263973 C149.618836,22.5040685 148.855685,22.5447534 148.106096,22.5447534 C146.079247,22.5447534 144.560342,22.2513288 143.546918,21.6657123 C142.533493,21.0800959 141.981164,20.149274 141.888699,18.8732466 L145.718014,18.8732466 Z" id="Fill-39" fill="#00ADEE"></path>
                <path d="M155.410274,22.1496164 L158.883288,22.1496164 L158.883288,11.5703014 L155.410274,11.5703014 L155.410274,22.1496164 Z M155.410274,10.2671507 L158.883288,10.2671507 L158.883288,7.81989041 L155.410274,7.81989041 L155.410274,10.2671507 Z" id="Fill-40" fill="#00ADEE"></path>
                <path d="M163.362452,16.9192603 C163.362452,17.4185753 163.451219,17.8599452 163.629986,18.2409041 C163.806288,18.6230959 164.044233,18.942411 164.340123,19.1988493 C164.636014,19.4552877 164.983685,19.6500822 165.386836,19.7807671 C165.787521,19.9126849 166.205466,19.9780274 166.639438,19.9780274 C167.073411,19.9780274 167.48889,19.9126849 167.883411,19.7807671 C168.277932,19.6500822 168.623137,19.4552877 168.919027,19.1988493 C169.214918,18.942411 169.45163,18.6230959 169.629164,18.2409041 C169.807932,17.8599452 169.896699,17.4185753 169.896699,16.9192603 C169.896699,16.4187123 169.807932,15.9773425 169.629164,15.5963836 C169.45163,15.2141918 169.214918,14.8948767 168.919027,14.6384384 C168.623137,14.382 168.277932,14.1884384 167.883411,14.0577534 C167.48889,13.9246027 167.073411,13.8604932 166.639438,13.8604932 C166.205466,13.8604932 165.787521,13.9246027 165.386836,14.0577534 C164.983685,14.1884384 164.636014,14.382 164.340123,14.6384384 C164.044233,14.8948767 163.806288,15.2141918 163.629986,15.5963836 C163.451219,15.9773425 163.362452,16.4187123 163.362452,16.9192603 L163.362452,16.9192603 Z M169.896699,20.8274795 L169.857247,20.8274795 C169.291356,21.511726 168.649027,21.9691233 167.932726,22.1984384 C167.215192,22.4289863 166.461904,22.5436438 165.672863,22.5436438 C164.843137,22.5436438 164.070123,22.4265205 163.352589,22.1885753 C162.635055,21.951863 162.009986,21.6041918 161.478616,21.1430959 C160.944781,20.682 160.526836,20.1037808 160.224781,19.4059726 C159.921493,18.7081644 159.771082,17.8993973 159.771082,16.9784384 C159.771082,16.1228219 159.921493,15.3436438 160.224781,14.6384384 C160.526836,13.9356986 160.941082,13.3365205 161.468753,12.842137 C161.995192,12.3489863 162.619027,11.9680274 163.342726,11.6980274 C164.066425,11.4292603 164.843137,11.2936438 165.672863,11.2936438 C166.659164,11.2936438 167.497521,11.4391233 168.189164,11.7276164 C168.880808,12.0173425 169.396151,12.3983014 169.73889,12.8729589 L169.77711,12.8729589 L169.77711,7.81939726 L173.251356,7.81939726 L173.251356,22.1491233 L169.896699,22.1491233 L169.896699,20.8274795 Z" id="Fill-41" fill="#00ADEE"></path>
                <path d="M184.226178,15.7344658 L184.226178,15.6950137 C184.226178,15.5507671 184.173164,15.3473425 184.06837,15.0835068 C183.962342,14.8209041 183.786041,14.5607671 183.534534,14.3030959 C183.285493,14.0466575 182.950151,13.8235068 182.528507,13.632411 C182.106863,13.4425479 181.580425,13.3463836 180.950425,13.3463836 C180.251384,13.3463836 179.689192,13.4573425 179.262616,13.681726 C178.834808,13.9061096 178.498233,14.1563836 178.255356,14.4313151 C178.012479,14.7087123 177.847274,14.9750137 177.762205,15.2314521 C177.677137,15.4878904 177.632753,15.6432329 177.632753,15.6950137 L177.632753,15.7344658 L184.226178,15.7344658 Z M187.621521,18.991726 C187.120973,20.2406301 186.296178,21.1467945 185.143438,21.7052877 C183.993164,22.2650137 182.61974,22.5436438 181.028096,22.5436438 C179.976452,22.5436438 179.020973,22.4363836 178.166589,22.2181644 C177.312205,22.0011781 176.577411,21.6633699 175.965904,21.202274 C175.354397,20.742411 174.880973,20.1530959 174.544397,19.4355616 C174.209055,18.7180274 174.041384,17.8599452 174.041384,16.8588493 C174.041384,15.8602192 174.209055,15.0009041 174.544397,14.2833699 C174.880973,13.5670685 175.354397,12.9789863 175.965904,12.5178904 C176.577411,12.0567945 177.312205,11.7177534 178.166589,11.5007671 C179.020973,11.2837808 179.976452,11.1752877 181.028096,11.1752877 C183.318781,11.1752877 185.022616,11.7276164 186.140836,12.832274 C187.259055,13.9381644 187.818781,15.4854247 187.818781,17.471589 L187.818781,17.7872055 L177.632753,17.7872055 L177.632753,17.8266575 C177.632753,18.0756986 177.699329,18.3493973 177.831247,18.6452877 C177.963164,18.942411 178.166589,19.2185753 178.443986,19.4750137 C178.718918,19.7314521 179.070288,19.9459726 179.499329,20.1161096 C179.927137,20.2874795 180.436315,20.3737808 181.028096,20.3737808 C182.461932,20.3737808 183.423575,19.9126849 183.910562,18.991726 L187.621521,18.991726 Z" id="Fill-42" fill="#00ADEE"></path>
            </g>
        </g>
    </g>
</svg>